<?xml version="1.0" encoding="UTF-8" standalone="no"?>
<!DOCTYPE svg PUBLIC "-//W3C//DTD SVG 1.1//EN"
 "http://www.w3.org/Graphics/SVG/1.1/DTD/svg11.dtd">
<!-- Generated by graphviz version 2.43.0 (0)
 -->
<!-- Title: ContractLens Pages: 1 -->
<svg width="605pt" height="838pt"
 viewBox="0.00 0.00 605.40 838.37" xmlns="http://www.w3.org/2000/svg" xmlns:xlink="http://www.w3.org/1999/xlink">
<g id="graph0" class="graph" transform="scale(1 1) rotate(0) translate(43.2 795.17)">
<title>ContractLens</title>
<polygon fill="#fafafa" stroke="transparent" points="-43.2,43.2 -43.2,-795.17 562.2,-795.17 562.2,43.2 -43.2,43.2"/>
<text text-anchor="start" x="8" y="-732.97" font-family="Helvetica,sans-Serif" font-weight="bold" font-size="20.00" fill="#0e1628">ContractLens — Reflection&#45;Loop State Graph</text>
<text text-anchor="start" x="50" y="-720.17" font-family="Helvetica,sans-Serif" font-size="11.00" fill="#475569">drafter ⇆ critic cycle · capped at 3 iterations · structured Pydantic feedback</text>
<!-- __start__ -->
<g id="node1" class="node">
<title>__start__</title>
<ellipse fill="#94a3b8" stroke="#0e1628" stroke-width="0" cx="214.25" cy="-683.97" rx="49.49" ry="28.98"/>
<text text-anchor="middle" x="214.25" y="-680.27" font-family="Helvetica,sans-Serif" font-size="14.00" fill="white">Start</text>
</g>
<!-- parser -->
<g id="node2" class="node">
<title>parser</title>
<path fill="#1f4fd8" stroke="#0e1628" stroke-width="0" d="M286.25,-605.98C286.25,-605.98 142.25,-605.98 142.25,-605.98 136.25,-605.98 130.25,-599.98 130.25,-593.98 130.25,-593.98 130.25,-561.98 130.25,-561.98 130.25,-555.98 136.25,-549.98 142.25,-549.98 142.25,-549.98 286.25,-549.98 286.25,-549.98 292.25,-549.98 298.25,-555.98 298.25,-561.98 298.25,-561.98 298.25,-593.98 298.25,-593.98 298.25,-599.98 292.25,-605.98 286.25,-605.98"/>
<text text-anchor="middle" x="214.25" y="-581.78" font-family="Helvetica,sans-Serif" font-size="14.00" fill="white">parser</text>
<text text-anchor="middle" x="214.25" y="-566.78" font-family="Helvetica,sans-Serif" font-size="14.00" fill="white">— extracts clauses</text>
</g>
<!-- __start__&#45;&gt;parser -->
<g id="edge1" class="edge">
<title>__start__&#45;&gt;parser</title>
<path fill="none" stroke="#0e1628" stroke-width="1.8" d="M214.25,-654.83C214.25,-642.64 214.25,-628.2 214.25,-615.22"/>
<polygon fill="#0e1628" stroke="#0e1628" stroke-width="1.8" points="217.4,-615.07 214.25,-606.07 211.1,-615.07 217.4,-615.07"/>
</g>
<!-- drafter -->
<g id="node3" class="node">
<title>drafter</title>
<path fill="#1f4fd8" stroke="#0e1628" stroke-width="0" d="M291.25,-500.98C291.25,-500.98 137.25,-500.98 137.25,-500.98 131.25,-500.98 125.25,-494.98 125.25,-488.98 125.25,-488.98 125.25,-456.98 125.25,-456.98 125.25,-450.98 131.25,-444.98 137.25,-444.98 137.25,-444.98 291.25,-444.98 291.25,-444.98 297.25,-444.98 303.25,-450.98 303.25,-456.98 303.25,-456.98 303.25,-488.98 303.25,-488.98 303.25,-494.98 297.25,-500.98 291.25,-500.98"/>
<text text-anchor="middle" x="214.25" y="-476.78" font-family="Helvetica,sans-Serif" font-size="14.00" fill="white">drafter</text>
<text text-anchor="middle" x="214.25" y="-461.78" font-family="Helvetica,sans-Serif" font-size="14.00" fill="white">— proposes redlines</text>
</g>
<!-- parser&#45;&gt;drafter -->
<g id="edge3" class="edge">
<title>parser&#45;&gt;drafter</title>
<path fill="none" stroke="#0e1628" stroke-width="1.8" d="M214.25,-549.92C214.25,-537.83 214.25,-523.41 214.25,-510.4"/>
<polygon fill="#0e1628" stroke="#0e1628" stroke-width="1.8" points="217.4,-510.22 214.25,-501.22 211.1,-510.22 217.4,-510.22"/>
</g>
<!-- critic -->
<g id="node4" class="node">
<title>critic</title>
<path fill="#e0852a" stroke="#0e1628" stroke-width="0" d="M321.75,-395.98C321.75,-395.98 106.75,-395.98 106.75,-395.98 100.75,-395.98 94.75,-389.98 94.75,-383.98 94.75,-383.98 94.75,-351.98 94.75,-351.98 94.75,-345.98 100.75,-339.98 106.75,-339.98 106.75,-339.98 321.75,-339.98 321.75,-339.98 327.75,-339.98 333.75,-345.98 333.75,-351.98 333.75,-351.98 333.75,-383.98 333.75,-383.98 333.75,-389.98 327.75,-395.98 321.75,-395.98"/>
<text text-anchor="middle" x="214.25" y="-371.78" font-family="Helvetica,sans-Serif" font-size="14.00" fill="white">critic</text>
<text text-anchor="middle" x="214.25" y="-356.78" font-family="Helvetica,sans-Serif" font-size="14.00" fill="white">— scores vs 7&#45;point checklist</text>
</g>
<!-- drafter&#45;&gt;critic -->
<g id="edge2" class="edge">
<title>drafter&#45;&gt;critic</title>
<path fill="none" stroke="#0e1628" stroke-width="1.8" d="M214.25,-444.92C214.25,-432.83 214.25,-418.41 214.25,-405.4"/>
<polygon fill="#0e1628" stroke="#0e1628" stroke-width="1.8" points="217.4,-405.22 214.25,-396.22 211.1,-405.22 217.4,-405.22"/>
</g>
<!-- decision_gate -->
<g id="node7" class="node">
<title>decision_gate</title>
<polygon fill="#0e1628" stroke="#0e1628" stroke-width="0" points="214.25,-290.98 138.25,-256.98 214.25,-222.98 290.25,-256.98 214.25,-290.98"/>
<text text-anchor="middle" x="214.25" y="-260.38" font-family="Helvetica,sans-Serif" font-size="12.00" fill="white">approved</text>
<text text-anchor="middle" x="214.25" y="-247.38" font-family="Helvetica,sans-Serif" font-size="12.00" fill="white">or iter ≥ 3?</text>
</g>
<!-- critic&#45;&gt;decision_gate -->
<g id="edge5" class="edge">
<title>critic&#45;&gt;decision_gate</title>
<path fill="none" stroke="#0e1628" stroke-width="1.8" d="M214.25,-339.76C214.25,-327.77 214.25,-313.41 214.25,-300.09"/>
<polygon fill="#0e1628" stroke="#0e1628" stroke-width="1.8" points="217.4,-300.08 214.25,-291.08 211.1,-300.08 217.4,-300.08"/>
</g>
<!-- formatter -->
<g id="node5" class="node">
<title>formatter</title>
<path fill="#1f4fd8" stroke="#0e1628" stroke-width="0" d="M297.25,-162.98C297.25,-162.98 131.25,-162.98 131.25,-162.98 125.25,-162.98 119.25,-156.98 119.25,-150.98 119.25,-150.98 119.25,-118.98 119.25,-118.98 119.25,-112.98 125.25,-106.98 131.25,-106.98 131.25,-106.98 297.25,-106.98 297.25,-106.98 303.25,-106.98 309.25,-112.98 309.25,-118.98 309.25,-118.98 309.25,-150.98 309.25,-150.98 309.25,-156.98 303.25,-162.98 297.25,-162.98"/>
<text text-anchor="middle" x="214.25" y="-138.78" font-family="Helvetica,sans-Serif" font-size="14.00" fill="white">formatter</text>
<text text-anchor="middle" x="214.25" y="-123.78" font-family="Helvetica,sans-Serif" font-size="14.00" fill="white">— renders final report</text>
</g>
<!-- __end__ -->
<g id="node6" class="node">
<title>__end__</title>
<ellipse fill="#94a3b8" stroke="#0e1628" stroke-width="0" cx="214.25" cy="-28.99" rx="45.01" ry="28.98"/>
<text text-anchor="middle" x="214.25" y="-25.29" font-family="Helvetica,sans-Serif" font-size="14.00" fill="white">End</text>
</g>
<!-- formatter&#45;&gt;__end__ -->
<g id="edge4" class="edge">
<title>formatter&#45;&gt;__end__</title>
<path fill="none" stroke="#0e1628" stroke-width="1.8" d="M214.25,-106.93C214.25,-94.83 214.25,-80.35 214.25,-67.25"/>
<polygon fill="#0e1628" stroke="#0e1628" stroke-width="1.8" points="217.4,-66.99 214.25,-57.99 211.1,-66.99 217.4,-66.99"/>
</g>
<!-- decision_gate&#45;&gt;drafter -->
<g id="edge6" class="edge">
<title>decision_gate&#45;&gt;drafter</title>
<path fill="none" stroke="#c0392b" stroke-width="2" stroke-dasharray="5,2" d="M258.96,-271.09C291.47,-283.23 333.17,-304.83 353.25,-339.98 365.59,-361.6 365.94,-374.57 353.25,-395.98 342.03,-414.9 324.25,-429.42 305.11,-440.44"/>
<polygon fill="#c0392b" stroke="#c0392b" stroke-width="2" points="303.52,-437.72 297.14,-444.79 306.55,-443.24 303.52,-437.72"/>
<text text-anchor="middle" x="393.25" y="-365.18" font-family="Helvetica,sans-Serif" font-size="11.00" fill="#c0392b">loop_back &#160;</text>
</g>
<!-- decision_gate&#45;&gt;formatter -->
<g id="edge7" class="edge">
<title>decision_gate&#45;&gt;formatter</title>
<path fill="none" stroke="#15803d" stroke-width="2" d="M214.25,-222.87C214.25,-207.22 214.25,-188.48 214.25,-172.42"/>
<polygon fill="#15803d" stroke="#15803d" stroke-width="2" points="217.4,-172.31 214.25,-163.31 211.1,-172.31 217.4,-172.31"/>
<text text-anchor="middle" x="225.25" y="-190.18" font-family="Helvetica,sans-Serif" font-size="11.00" fill="#15803d">exit</text>
</g>
</g>
</svg>
